<?xml version="1.0" encoding="UTF-8"?>
<svg width="12px" height="12px" viewBox="0 0 12 12" version="1.1" xmlns="http://www.w3.org/2000/svg" xmlns:xlink="http://www.w3.org/1999/xlink">
    <!-- Generator: Sketch 63.1 (92452) - https://sketch.com -->
    <title>全屏-划过</title>
    <desc>Created with Sketch.</desc>
    <g id="页面-2" stroke="none" stroke-width="1" fill="none" fill-rule="evenodd">
        <g id="数据大屏-划过样式" transform="translate(-1826.000000, -17.000000)" fill="#FFFFFF" fill-rule="nonzero">
            <g id="全屏" transform="translate(1814.000000, 10.000000)">
                <g id="全屏-划过" transform="translate(12.004678, 7.004678)">
                    <path d="M1.07784431,1.07784431 L1.07784431,3.23353293 L-1.9095836e-13,3.23353293 L-1.9095836e-13,-7.72715225e-14 L3.29341318,-7.72715225e-14 L3.29341318,1.07784431 L1.07784431,1.07784431 Z M10.8982036,1.07784431 L8.74251498,1.07784431 L8.74251498,-7.72715225e-14 L11.9760479,-7.72715225e-14 L11.9760479,3.29341318 L10.8982036,3.29341318 L10.8982036,1.07784431 Z M10.8982036,10.8982036 L10.8982036,8.74251498 L11.9760479,8.74251498 L11.9760479,11.9760479 L8.68263474,11.9760479 L8.68263474,10.8982036 L10.8982036,10.8982036 Z M1.07784431,10.8982036 L3.23353293,10.8982036 L3.23353293,11.9760479 L-1.9095836e-13,11.9760479 L-1.9095836e-13,8.68263474 L1.07784431,8.68263474 L1.07784431,10.8982036 Z M2.39520959,2.39520959 L9.58083833,2.39520959 L9.58083833,9.58083833 L2.39520959,9.58083833 L2.39520959,2.39520959 Z" id="形状"></path>
                </g>
            </g>
        </g>
    </g>
</svg>