<?xml version="1.0" encoding="UTF-8"?>
<svg width="18px" height="17px" viewBox="0 0 18 17" version="1.1" xmlns="http://www.w3.org/2000/svg" xmlns:xlink="http://www.w3.org/1999/xlink">
    <!-- Generator: Sketch 63.1 (92452) - https://sketch.com -->
    <title>店铺-默认</title>
    <desc>Created with Sketch.</desc>
    <g id="页面-2" stroke="none" stroke-width="1" fill="none" fill-rule="evenodd" opacity="0.8">
        <g id="数据大屏-默认样式" transform="translate(-35.000000, -14.000000)" fill="#FFFFFF" fill-rule="nonzero">
            <g id="编组-16">
                <g id="编组-15" transform="translate(35.000000, 12.000000)">
                    <g id="店铺-默认" transform="translate(0.000000, 2.000000)">
                        <path d="M10.3615569,16.115818 L6.65145316,16.115818 C6.13827037,16.1150517 5.72256745,15.6989935 5.72223955,15.1858102 L5.72223955,10.6257143 C5.72256734,10.1125149 6.13825432,9.69642822 6.65145316,9.69560721 L10.3615569,9.69560721 C10.874717,9.6964829 11.2903436,10.1125536 11.2906712,10.6257143 L11.2906712,15.1858102 C11.2903434,15.6989548 10.8747009,16.114997 10.3615569,16.115818 L10.3615569,16.115818 Z M7.04765952,14.7892068 L9.96525126,14.7892068 L9.96525126,11.0223177 L7.04765952,11.0223177 L7.04765952,14.7892068 Z" id="形状"></path>
                        <path d="M17.0753238,5.90509075 C17.0813647,5.74926128 17.0479332,5.59443176 16.9781336,5.45497809 L14.5192914,0.515651823 C14.3629241,0.198611874 14.039478,-0.00152860799 13.6859774,8.79448279e-06 L3.290698,8.79448279e-06 C2.93279011,0.000949827925 2.60682717,0.206141494 2.45122895,0.528458293 L0.0914631987,5.46639471 C0.0262715364,5.60196825 -0.00490644218,5.75138403 0.00062661195,5.9017154 C0.0365280312,6.80527051 0.617051725,7.59668666 1.46810904,7.90230436 L1.46810904,15.1549357 C1.46947726,15.6676889 1.88556037,16.0825609 2.3983154,16.0825609 L14.5071799,16.0825609 C15.0200121,16.0825609 15.4360827,15.6674687 15.437287,15.1546379 L15.437287,7.95650849 C16.3722405,7.70309107 17.0351043,6.87294447 17.0753238,5.90509075 Z M2.79481958,14.7589279 L2.79481958,7.96266354 C3.17888662,7.86308638 3.52949905,7.66300566 3.81060096,7.38299705 C4.67883601,8.25180624 6.08590931,8.25575496 6.95900698,7.39183253 C7.83213859,8.25576643 9.2392432,8.25181775 10.1075123,7.38299705 C10.5262152,7.80188875 11.0942116,8.03723553 11.6864805,8.03723553 C12.2787494,8.03723553 12.8467457,7.80188875 13.2654487,7.38299705 C13.5038668,7.62027424 13.7927003,7.80076125 14.1104771,7.91104056 L14.1104771,14.7589279 L2.79481958,14.7589279 L2.79481958,14.7589279 Z M14.8446155,6.71358601 C14.3449742,6.71358721 13.9396278,6.30912898 13.9385329,5.80948897 C13.9383487,5.6337496 13.868353,5.4652827 13.7439469,5.34115584 C13.6195408,5.21702899 13.450917,5.14741207 13.2751776,5.14762282 C13.2718023,5.14762282 13.268824,5.1485163 13.2652501,5.14861557 C13.2616762,5.14871485 13.2589958,5.14762282 13.2553227,5.14762282 C13.0795833,5.14741207 12.9109595,5.21702899 12.7865534,5.34115584 C12.6621473,5.4652827 12.5921516,5.6337496 12.5919674,5.80948897 C12.5867682,6.30617748 12.1826502,6.70608737 11.6859345,6.70608737 C11.1892188,6.70608737 10.7851008,6.30617748 10.7799016,5.80948897 C10.7797174,5.6337496 10.7097217,5.4652827 10.5853155,5.34115584 C10.4609094,5.21702899 10.2922856,5.14741207 10.1165463,5.14762282 C10.1132702,5.14762282 10.110292,5.1485163 10.1066188,5.14861557 C10.1029456,5.14871485 10.1002652,5.14762282 10.0966913,5.14762282 C9.92095197,5.14741207 9.75232819,5.21702899 9.62792206,5.34115584 C9.50351593,5.4652827 9.43352023,5.6337496 9.43333604,5.80948897 C9.43333604,6.30990454 9.02766906,6.71557151 8.52725349,6.71557151 C8.02683792,6.71557151 7.62117095,6.30990454 7.62117095,5.80948897 C7.62117095,5.44312797 7.32417668,5.1461337 6.95781568,5.1461337 C6.59145468,5.1461337 6.29446041,5.44312797 6.29446041,5.80948897 C6.29446041,6.30990454 5.88879344,6.71557151 5.38837787,6.71557151 C4.8879623,6.71557151 4.48229532,6.30990454 4.48229532,5.80948897 C4.48211113,5.6337496 4.41211543,5.4652827 4.2877093,5.34115584 C4.16330318,5.21702899 3.99467939,5.14741207 3.81894005,5.14762282 C3.81566398,5.14762282 3.81258646,5.1485163 3.80901256,5.14861557 C3.80543866,5.14871485 3.80265896,5.14762282 3.79908506,5.14762282 C3.43389912,5.14827923 3.13809772,5.44430263 3.13771529,5.80948897 C3.13633318,6.28367187 2.76969559,6.67664518 2.29674699,6.71086436 C1.82379839,6.74508354 1.40441012,6.40898143 1.33478277,5.93993626 L3.54097017,1.32365071 L13.4401726,1.32365071 L15.7406712,5.94490001 C15.6741118,6.38798028 15.2926642,6.7152071 14.8446155,6.71358601 L14.8446155,6.71358601 Z" id="形状"></path>
                    </g>
                </g>
            </g>
        </g>
    </g>
</svg>