<?xml version="1.0" encoding="UTF-8"?>
<svg width="15px" height="15px" viewBox="0 0 15 15" version="1.1" xmlns="http://www.w3.org/2000/svg" xmlns:xlink="http://www.w3.org/1999/xlink">
    <!-- Generator: Sketch 63.1 (92452) - https://sketch.com -->
    <title>时间</title>
    <desc>Created with Sketch.</desc>
    <g id="页面-2" stroke="none" stroke-width="1" fill="none" fill-rule="evenodd" fill-opacity="0.8">
        <g id="数据大屏-默认样式" transform="translate(-145.000000, -15.000000)" fill="#FFFFFF" fill-rule="nonzero">
            <g id="编组-16">
                <g id="编组-8" transform="translate(145.000000, 12.000000)">
                    <g id="时间" transform="translate(0.000000, 3.000000)">
                        <path d="M7.50085626,-5.82645043e-13 C8.5129581,-5.82645043e-13 9.49594703,0.198652814 10.4207101,0.589108346 C11.3146478,0.967576207 12.1161091,1.50702135 12.8045439,2.1954561 C13.4929787,2.88389086 14.0341363,3.68535221 14.4108917,4.57928987 C14.8013472,5.50405297 15,6.4870419 15,7.49914374 C15,8.51124558 14.8013472,9.4942345 14.4108917,10.4189976 C14.0324238,11.3129353 13.4929787,12.1143966 12.8045439,12.8028314 C12.1161091,13.4912661 11.3146478,14.0324238 10.4207101,14.4091791 C9.49594703,14.8030597 8.5129581,15.0017125 7.50085626,15.0017125 C6.48875442,15.0017125 5.5057655,14.8030597 4.5810024,14.4126042 C3.68706473,14.0341363 2.88560338,13.4946912 2.19716863,12.8062564 C1.50873387,12.1178217 0.967576207,11.3163603 0.59082087,10.4224227 C0.198652814,9.49594703 -5.93303184e-13,8.5129581 -5.93303184e-13,7.50085626 C-5.93303184e-13,6.48875442 0.198652814,5.5057655 0.589108346,4.5810024 C0.967576207,3.68706473 1.50702135,2.88560338 2.1954561,2.19716863 C2.88389086,1.50873387 3.68535221,0.967576207 4.57928987,0.59082087 C5.5057655,0.198652814 6.48875442,-5.82645043e-13 7.50085626,-5.82645043e-13 Z M7.50085626,1.19876698 C5.81744491,1.19876698 4.2350725,1.85466377 3.04486814,3.04486814 C1.85466377,4.2350725 1.19876698,5.81744491 1.19876698,7.50085626 C1.19876698,9.18426761 1.85466377,10.76664 3.04486814,11.9568444 C4.2350725,13.1470487 5.81744491,13.8029455 7.50085626,13.8029455 C9.18426761,13.8029455 10.76664,13.1470487 11.9568444,11.9568444 C13.1470487,10.76664 13.8029455,9.18426761 13.8029455,7.50085626 C13.8029455,5.81744491 13.1470487,4.2350725 11.9568444,3.04486814 C10.76664,1.85466377 9.18426761,1.19876698 7.50085626,1.19876698 Z M7.50085626,2.40780911 C7.83137344,2.40780911 8.10023975,2.67667542 8.10023975,3.0071926 L8.10023975,6.89976025 L11.9106062,6.88606005 C12.2394109,6.88606005 12.5082772,7.15321384 12.5099979,7.48373102 C12.5117022,7.8142482 12.2428359,8.08482704 11.9123188,8.08482704 L7.50256879,8.10023975 L7.50085626,8.10023975 C7.34159151,8.10023975 7.19088937,8.03858888 7.07786277,7.92556228 C6.96654869,7.8142482 6.90147277,7.65840849 6.90147277,7.50085626 L6.90147277,3.0071926 C6.90147277,2.67667542 7.17033908,2.40780911 7.50085626,2.40780911 Z" id="形状结合"></path>
                    </g>
                </g>
            </g>
        </g>
    </g>
</svg>